<svg width="512" height="512" viewBox="0 0 135.467 135.467" xmlns="http://www.w3.org/2000/svg"><path style="fill:#09907e;fill-opacity:1;fill-rule:evenodd;stroke:none;stroke-width:0;stroke-linecap:round;stroke-linejoin:round;stroke-miterlimit:4;stroke-dasharray:none;stroke-opacity:1" d="M0 0h135.467v135.467H0z"/><path style="fill:#fff;fill-opacity:1;fill-rule:evenodd;stroke:none;stroke-width:1;stroke-linecap:round;stroke-linejoin:round;stroke-miterlimit:4;stroke-opacity:1" d="M43.78 16.348c-.851 0-1.668.34-2.27.941L17.29 41.51a3.212 3.212 0 0 0-.942 2.27v59.884c0 .852.339 1.67.942 2.272l12.243 12.243c.603.602 1.42.94 2.271.94h54.59c3.439-.095 4.785-4.08 2.902-6.112L73.868 97.578l-.005-.004-.003-.006c-.529-.528-1.129-.933-2.262-.933h-26.45l-6.319-6.32V53.121L53.122 38.83h37.195l6.32 6.32V81.37L68.735 53.467a3.212 3.212 0 0 0-4.542 0l-10.22 10.22a3.212 3.212 0 0 0 .01 4.55l42.886 42.509c1.66 1.588 3.379.948 4.561-.034l16.749-16.752c.602-.603.94-1.42.94-2.272V31.805c0-.852-.338-1.668-.94-2.27l-12.246-12.246a3.212 3.212 0 0 0-2.27-.94h-35.93z"/></svg>