<svg width="512" height="512" viewBox="0 0 135.467 135.467" xmlns="http://www.w3.org/2000/svg"><path style="fill:#09907e;fill-opacity:1;stroke:#60809f;stroke-width:.264583" d="M0 0h135.467v135.467H0z"/><path style="color:#000;font-style:normal;font-variant:normal;font-weight:400;font-stretch:normal;font-size:medium;line-height:normal;font-family:sans-serif;font-variant-ligatures:normal;font-variant-position:normal;font-variant-caps:normal;font-variant-numeric:normal;font-variant-alternates:normal;font-variant-east-asian:normal;font-feature-settings:normal;font-variation-settings:normal;text-indent:0;text-align:start;text-decoration:none;text-decoration-line:none;text-decoration-style:solid;text-decoration-color:#000;letter-spacing:normal;word-spacing:normal;text-transform:none;writing-mode:lr-tb;direction:ltr;text-orientation:mixed;dominant-baseline:auto;baseline-shift:baseline;text-anchor:start;white-space:normal;shape-padding:0;shape-margin:0;inline-size:0;clip-rule:nonzero;display:inline;overflow:visible;visibility:visible;isolation:auto;mix-blend-mode:normal;color-interpolation:sRGB;color-interpolation-filters:linearRGB;solid-color:#000;solid-opacity:1;vector-effect:none;fill:#fff;fill-opacity:1;fill-rule:nonzero;stroke:none;stroke-width:.781249;stroke-linecap:round;stroke-linejoin:round;stroke-miterlimit:4;stroke-dasharray:none;stroke-dashoffset:0;stroke-opacity:1;color-rendering:auto;image-rendering:auto;shape-rendering:auto;text-rendering:auto;enable-background:accumulate;stop-color:#000" d="M43.066 14.817a3.308 3.308 0 0 0-2.338.969L15.785 40.728a3.308 3.308 0 0 0-.969 2.338V104.734a3.308 3.308 0 0 0 .97 2.34l12.608 12.608a3.308 3.308 0 0 0 2.339.968H92.4a3.308 3.308 0 0 0 2.34-.968l.648-.649a3.308 3.308 0 0 0 0-4.677L79.5 98.468a3.307 3.307 0 0 0-.005-.004 3.307 3.307 0 0 0-.004-.006 3.307 3.307 0 0 0-.073-.069 3.307 3.307 0 0 0-.01-.01 3.307 3.307 0 0 0-.074-.066 3.307 3.307 0 0 0-.01-.01 3.307 3.307 0 0 0-.077-.064 3.307 3.307 0 0 0-.01-.008 3.307 3.307 0 0 0-.08-.062 3.307 3.307 0 0 0-.01-.007 3.307 3.307 0 0 0-.08-.06 3.307 3.307 0 0 0-.011-.007 3.307 3.307 0 0 0-.083-.056 3.307 3.307 0 0 0-.012-.007 3.307 3.307 0 0 0-.084-.053 3.307 3.307 0 0 0-.012-.008 3.307 3.307 0 0 0-.087-.05 3.307 3.307 0 0 0-.079-.041 3.307 3.307 0 0 0-.02-.012 3.307 3.307 0 0 0-.013-.006 3.307 3.307 0 0 0-.09-.044 3.307 3.307 0 0 0-.012-.007 3.307 3.307 0 0 0-.09-.04 3.307 3.307 0 0 0-.014-.006 3.307 3.307 0 0 0-.005-.003 3.307 3.307 0 0 0-.1-.04 3.307 3.307 0 0 0-.093-.035 3.307 3.307 0 0 0-.013-.004 3.307 3.307 0 0 0-.094-.032 3.307 3.307 0 0 0-.014-.005 3.307 3.307 0 0 0-.015-.004 3.307 3.307 0 0 0-.094-.027 3.307 3.307 0 0 0-.097-.025 3.307 3.307 0 0 0-.013-.003 3.307 3.307 0 0 0-.098-.022 3.307 3.307 0 0 0-.075-.015 3.307 3.307 0 0 0-.036-.006 3.307 3.307 0 0 0-.014-.003 3.307 3.307 0 0 0-.098-.014 3.307 3.307 0 0 0-.014-.002 3.307 3.307 0 0 0-.099-.012 3.307 3.307 0 0 0-.014 0 3.307 3.307 0 0 0-.099-.008 3.307 3.307 0 0 0-.014-.001 3.307 3.307 0 0 0-.1-.004 3.307 3.307 0 0 0-.099-.003H44.475l-6.508-6.508V52.686l14.719-14.718H90.99l6.508 6.508v37.302L68.765 53.042a3.308 3.308 0 0 0-4.678 0L53.563 63.566a3.308 3.308 0 0 0 .01 4.687l44.164 43.775a3.307 3.307 0 0 0 .046.044 3.307 3.307 0 0 0 .033.032 3.307 3.307 0 0 0 .003.003 3.307 3.307 0 0 0 .074.066 3.307 3.307 0 0 0 .063.053 3.307 3.307 0 0 0 .028.023 3.307 3.307 0 0 0 .042.034 3.307 3.307 0 0 0 .043.033 3.307 3.307 0 0 0 .012.009 3.307 3.307 0 0 0 .08.058 3.307 3.307 0 0 0 .012.009 3.307 3.307 0 0 0 .092.062 3.307 3.307 0 0 0 .014.01 3.307 3.307 0 0 0 .17.102 3.307 3.307 0 0 0 .068.036 3.307 3.307 0 0 0 .032.017 3.307 3.307 0 0 0 .013.006 3.307 3.307 0 0 0 .187.089 3.307 3.307 0 0 0 .004.003 3.307 3.307 0 0 0 .087.035 3.307 3.307 0 0 0 .026.011 3.307 3.307 0 0 0 .007.003 3.307 3.307 0 0 0 .092.035 3.307 3.307 0 0 0 .217.067 3.307 3.307 0 0 0 .075.021 3.307 3.307 0 0 0 .035.009 3.307 3.307 0 0 0 .024.005 3.307 3.307 0 0 0 .1.022 3.307 3.307 0 0 0 .099.018 3.307 3.307 0 0 0 .014.003 3.307 3.307 0 0 0 .097.015 3.307 3.307 0 0 0 .073.009 3.307 3.307 0 0 0 .04.003 3.307 3.307 0 0 0 .014 0 3.307 3.307 0 0 0 .1.01 3.307 3.307 0 0 0 .056.003 3.307 3.307 0 0 0 .072.003 3.307 3.307 0 0 0 .113 0 3.307 3.307 0 0 0 .029 0 3.307 3.307 0 0 0 .085-.003 3.307 3.307 0 0 0 .098-.005 3.307 3.307 0 0 0 .015-.001 3.307 3.307 0 0 0 .098-.01 3.307 3.307 0 0 0 .088-.01 3.307 3.307 0 0 0 .025-.004 3.307 3.307 0 0 0 .014-.003 3.307 3.307 0 0 0 .113-.018 3.307 3.307 0 0 0 .024-.003 3.307 3.307 0 0 0 .073-.015 3.307 3.307 0 0 0 .072-.016 3.307 3.307 0 0 0 .038-.01 3.307 3.307 0 0 0 .015-.002 3.307 3.307 0 0 0 .024-.006 3.307 3.307 0 0 0 .07-.02 3.307 3.307 0 0 0 .06-.018 3.307 3.307 0 0 0 .063-.02 3.307 3.307 0 0 0 .049-.015 3.307 3.307 0 0 0 .045-.017 3.307 3.307 0 0 0 .105-.04 3.307 3.307 0 0 0 .014-.005 3.307 3.307 0 0 0 .033-.014 3.307 3.307 0 0 0 .072-.03 3.307 3.307 0 0 0 .09-.042 3.307 3.307 0 0 0 .012-.006 3.307 3.307 0 0 0 .088-.045 3.307 3.307 0 0 0 .013-.006 3.307 3.307 0 0 0 .087-.048 3.307 3.307 0 0 0 .097-.058 3.307 3.307 0 0 0 .013-.008 3.307 3.307 0 0 0 .083-.054 3.307 3.307 0 0 0 .076-.052 3.307 3.307 0 0 0 .018-.012 3.307 3.307 0 0 0 .012-.009 3.307 3.307 0 0 0 .007-.006 3.307 3.307 0 0 0 .17-.133 3.307 3.307 0 0 0 .076-.065 3.307 3.307 0 0 0 .011-.01 3.307 3.307 0 0 0 .073-.067 3.307 3.307 0 0 0 .011-.01 3.307 3.307 0 0 0 .05-.05l.012-.01a3.307 3.307 0 0 0 .019-.02l17.248-17.251a3.308 3.308 0 0 0 .968-2.34V30.734a3.308 3.308 0 0 0-.968-2.338l-12.61-12.61a3.308 3.308 0 0 0-2.339-.968h-37zm1.37 6.614h58.928l10.671 10.673V91.03l-13.98 13.981L60.59 65.895l5.836-5.837 29.237 29.237a3.308 3.308 0 0 0 4.677 0l2.805-2.804a3.308 3.308 0 0 0 .968-2.339V43.106a3.308 3.308 0 0 0-.967-2.338L94.7 32.322a3.308 3.308 0 0 0-2.339-.969H51.315a3.308 3.308 0 0 0-2.338.97L32.322 48.976a3.308 3.308 0 0 0-.97 2.338v41.046a3.308 3.308 0 0 0 .97 2.339l8.446 8.446a3.308 3.308 0 0 0 2.338.968h32.685l9.922 9.921H32.103l-10.672-10.67V44.436z"/></svg>