<?xml version="1.0" encoding="UTF-8" standalone="no"?>
<svg
   xmlns:dc="http://purl.org/dc/elements/1.1/"
   xmlns:cc="http://creativecommons.org/ns#"
   xmlns:rdf="http://www.w3.org/1999/02/22-rdf-syntax-ns#"
   xmlns:svg="http://www.w3.org/2000/svg"
   xmlns="http://www.w3.org/2000/svg"
   width="512"
   height="512"
   viewBox="0 0 135.46666 135.46667"
   version="1.1"
   id="svg1819">
  <defs
     id="defs1813" />
  <metadata
     id="metadata1816">
    <rdf:RDF>
      <cc:Work
         rdf:about="">
        <dc:format>image/svg+xml</dc:format>
        <dc:type
           rdf:resource="http://purl.org/dc/dcmitype/StillImage" />
        <dc:title></dc:title>
      </cc:Work>
    </rdf:RDF>
  </metadata>
  <g
     id="layer1">
    <path
       style="color:#000000;font-style:normal;font-variant:normal;font-weight:normal;font-stretch:normal;font-size:medium;line-height:normal;font-family:sans-serif;font-variant-ligatures:normal;font-variant-position:normal;font-variant-caps:normal;font-variant-numeric:normal;font-variant-alternates:normal;font-variant-east-asian:normal;font-feature-settings:normal;font-variation-settings:normal;text-indent:0;text-align:start;text-decoration:none;text-decoration-line:none;text-decoration-style:solid;text-decoration-color:#000000;letter-spacing:normal;word-spacing:normal;text-transform:none;writing-mode:lr-tb;direction:ltr;text-orientation:mixed;dominant-baseline:auto;baseline-shift:baseline;text-anchor:start;white-space:normal;shape-padding:0;shape-margin:0;inline-size:0;clip-rule:nonzero;display:inline;overflow:visible;visibility:visible;isolation:auto;mix-blend-mode:normal;color-interpolation:sRGB;color-interpolation-filters:linearRGB;solid-color:#000000;solid-opacity:1;vector-effect:none;fill:#09907e;fill-opacity:1;fill-rule:nonzero;stroke:none;stroke-width:0.999998;stroke-linecap:round;stroke-linejoin:round;stroke-miterlimit:4;stroke-dasharray:none;stroke-dashoffset:0;stroke-opacity:1;color-rendering:auto;image-rendering:auto;shape-rendering:auto;text-rendering:auto;enable-background:accumulate;stop-color:#000000"
       d="M 36.159694,3.6111829e-6 A 4.2337566,4.2337566 0 0 0 33.166595,1.2402336 L 1.2402061,33.166624 a 4.2337566,4.2337566 0 0 0 -1.240233970779,2.9931 v 31.57361 31.57361 15.786796 A 4.2337566,4.2337566 0 0 0 1.2402061,118.08822 l 16.1395829,16.13959 a 4.2337566,4.2337566 0 0 0 2.9931,1.23885 h 15.786805 31.57361 31.573611 a 4.2337566,4.2337566 0 0 0 2.994475,-1.23885 l 0.82958,-0.83096 a 4.2337566,4.2337566 0 0 0 0,-5.9862 L 82.795261,107.07356 a 4.2333332,4.2333332 0 0 0 -0.0069,-0.005 4.2333332,4.2333332 0 0 0 -0.0055,-0.007 4.2333332,4.2333332 0 0 0 -0.09233,-0.0882 4.2333332,4.2333332 0 0 0 -0.0124,-0.0124 4.2333332,4.2333332 0 0 0 -0.09508,-0.0854 4.2333332,4.2333332 0 0 0 -0.01378,-0.011 4.2333332,4.2333332 0 0 0 -0.09784,-0.0827 4.2333332,4.2333332 0 0 0 -0.01378,-0.011 4.2333332,4.2333332 0 0 0 -0.100597,-0.0786 4.2333332,4.2333332 0 0 0 -0.01378,-0.01 4.2333332,4.2333332 0 0 0 -0.103353,-0.0758 4.2333332,4.2333332 0 0 0 -0.01378,-0.01 4.2333332,4.2333332 0 0 0 -0.106109,-0.0717 4.2333332,4.2333332 0 0 0 -0.01516,-0.01 4.2333332,4.2333332 0 0 0 -0.107487,-0.0675 4.2333332,4.2333332 0 0 0 -0.01516,-0.01 4.2333332,4.2333332 0 0 0 -0.111621,-0.0634 4.2333332,4.2333332 0 0 0 -0.100596,-0.0537 4.2333332,4.2333332 0 0 0 -0.02618,-0.0152 4.2333332,4.2333332 0 0 0 -0.01654,-0.008 4.2333332,4.2333332 0 0 0 -0.114377,-0.0565 4.2333332,4.2333332 0 0 0 -0.01654,-0.008 4.2333332,4.2333332 0 0 0 -0.115755,-0.0524 4.2333332,4.2333332 0 0 0 -0.01654,-0.007 4.2333332,4.2333332 0 0 0 -0.0069,-0.003 4.2333332,4.2333332 0 0 0 -0.12678,-0.051 4.2333332,4.2333332 0 0 0 -0.11989,-0.0455 4.2333332,4.2333332 0 0 0 -0.01654,-0.005 4.2333332,4.2333332 0 0 0 -0.121267,-0.04 4.2333332,4.2333332 0 0 0 -0.01791,-0.006 4.2333332,4.2333332 0 0 0 -0.01929,-0.005 4.2333332,4.2333332 0 0 0 -0.11989,-0.0344 4.2333332,4.2333332 0 0 0 -0.124023,-0.0317 4.2333332,4.2333332 0 0 0 -0.01654,-0.004 4.2333332,4.2333332 0 0 0 -0.125402,-0.0276 4.2333332,4.2333332 0 0 0 -0.09646,-0.0193 4.2333332,4.2333332 0 0 0 -0.04547,-0.008 4.2333332,4.2333332 0 0 0 -0.01791,-0.003 4.2333332,4.2333332 0 0 0 -0.125402,-0.0179 4.2333332,4.2333332 0 0 0 -0.01791,-0.003 4.2333332,4.2333332 0 0 0 -0.12678,-0.0152 4.2333332,4.2333332 0 0 0 -0.01791,-0.001 4.2333332,4.2333332 0 0 0 -0.12678,-0.01 4.2333332,4.2333332 0 0 0 -0.01791,-0.001 4.2333332,4.2333332 0 0 0 -0.128157,-0.005 4.2333332,4.2333332 0 0 0 -0.12678,-0.003 H 79.784248 67.733304 46.718222 37.963545 l -8.33024,-8.330236 v -8.75331 -21.01645 -19.26084 l 18.83916,-18.83916 h 19.260839 21.01646 8.753299 l 8.330237,8.33024 v 8.75468 21.01508 17.97651 L 69.053464,48.928754 a 4.2337566,4.2337566 0 0 0 -5.987575,0 l -13.470323,13.47032 a 4.2337566,4.2337566 0 0 0 0.01378,5.99998 l 56.528504,56.031096 a 4.2333332,4.2333332 0 0 0 0.0593,0.0565 4.2333332,4.2333332 0 0 0 0.0427,0.0413 4.2333332,4.2333332 0 0 0 0.003,0.003 4.2333332,4.2333332 0 0 0 0.0951,0.0841 4.2333332,4.2333332 0 0 0 0.0799,0.0675 4.2333332,4.2333332 0 0 0 0.0358,0.0303 4.2333332,4.2333332 0 0 0 0.0537,0.0427 4.2333332,4.2333332 0 0 0 0.0551,0.0427 4.2333332,4.2333332 0 0 0 0.0152,0.011 4.2333332,4.2333332 0 0 0 0.10197,0.0744 4.2333332,4.2333332 0 0 0 0.0165,0.011 4.2333332,4.2333332 0 0 0 0.11714,0.0799 4.2333332,4.2333332 0 0 0 0.0179,0.011 4.2333332,4.2333332 0 0 0 0.21773,0.13091 4.2333332,4.2333332 0 0 0 0.0868,0.0469 4.2333332,4.2333332 0 0 0 0.0413,0.0221 4.2333332,4.2333332 0 0 0 0.0165,0.008 4.2333332,4.2333332 0 0 0 0.23977,0.113 4.2333332,4.2333332 0 0 0 0.005,0.003 4.2333332,4.2333332 0 0 0 0.11163,0.0455 4.2333332,4.2333332 0 0 0 0.0331,0.0138 4.2333332,4.2333332 0 0 0 0.008,0.003 4.2333332,4.2333332 0 0 0 0.11851,0.0441 4.2333332,4.2333332 0 0 0 0.27698,0.0868 4.2333332,4.2333332 0 0 0 0.0965,0.0262 4.2333332,4.2333332 0 0 0 0.0441,0.011 4.2333332,4.2333332 0 0 0 0.0317,0.007 4.2333332,4.2333332 0 0 0 0.12816,0.0276 4.2333332,4.2333332 0 0 0 0.1254,0.0234 4.2333332,4.2333332 0 0 0 0.0179,0.003 4.2333332,4.2333332 0 0 0 0.1254,0.0193 4.2333332,4.2333332 0 0 0 0.0923,0.011 4.2333332,4.2333332 0 0 0 0.0524,0.005 4.2333332,4.2333332 0 0 0 0.0179,10e-4 4.2333332,4.2333332 0 0 0 0.12678,0.011 4.2333332,4.2333332 0 0 0 0.0717,0.003 4.2333332,4.2333332 0 0 0 0.0923,0.004 4.2333332,4.2333332 0 0 0 0.1447,0.001 4.2333332,4.2333332 0 0 0 0.0372,-0.001 4.2333332,4.2333332 0 0 0 0.10886,-0.003 4.2333332,4.2333332 0 0 0 0.1254,-0.007 4.2333332,4.2333332 0 0 0 0.0193,-0.001 4.2333332,4.2333332 0 0 0 0.1254,-0.0124 4.2333332,4.2333332 0 0 0 0.113,-0.0138 4.2333332,4.2333332 0 0 0 0.0317,-0.004 4.2333332,4.2333332 0 0 0 0.0179,-0.003 4.2333332,4.2333332 0 0 0 0.1447,-0.0234 4.2333332,4.2333332 0 0 0 0.0303,-0.005 4.2333332,4.2333332 0 0 0 0.0937,-0.0193 4.2333332,4.2333332 0 0 0 0.0923,-0.0207 4.2333332,4.2333332 0 0 0 0.0482,-0.011 4.2333332,4.2333332 0 0 0 0.0193,-0.005 4.2333332,4.2333332 0 0 0 0.0303,-0.008 4.2333332,4.2333332 0 0 0 0.091,-0.0248 4.2333332,4.2333332 0 0 0 0.0772,-0.0234 4.2333332,4.2333332 0 0 0 0.0799,-0.0248 4.2333332,4.2333332 0 0 0 0.062,-0.0207 4.2333332,4.2333332 0 0 0 0.0579,-0.0207 4.2333332,4.2333332 0 0 0 0.13505,-0.051 4.2333332,4.2333332 0 0 0 0.0179,-0.007 4.2333332,4.2333332 0 0 0 0.0413,-0.0179 4.2333332,4.2333332 0 0 0 0.0923,-0.04 4.2333332,4.2333332 0 0 0 0.11437,-0.0524 4.2333332,4.2333332 0 0 0 0.0165,-0.008 4.2333332,4.2333332 0 0 0 0.113,-0.0579 4.2333332,4.2333332 0 0 0 0.0165,-0.008 4.2333332,4.2333332 0 0 0 0.11162,-0.062 4.2333332,4.2333332 0 0 0 0.12403,-0.0744 4.2333332,4.2333332 0 0 0 0.0165,-0.01 4.2333332,4.2333332 0 0 0 0.10611,-0.0689 4.2333332,4.2333332 0 0 0 0.0965,-0.0661 4.2333332,4.2333332 0 0 0 0.0234,-0.0152 4.2333332,4.2333332 0 0 0 0.0152,-0.011 4.2333332,4.2333332 0 0 0 0.01,-0.008 4.2333332,4.2333332 0 0 0 0.21914,-0.17085 4.2333332,4.2333332 0 0 0 0.0965,-0.0827 4.2333332,4.2333332 0 0 0 0.0138,-0.0124 4.2333332,4.2333332 0 0 0 0.0937,-0.0854 4.2333332,4.2333332 0 0 0 0.0138,-0.0124 4.2333332,4.2333332 0 0 0 0.0648,-0.0648 l 0.0138,-0.0124 a 4.2333332,4.2333332 0 0 0 0.0248,-0.0262 l 22.07755,-22.07617 a 4.2337566,4.2337566 0 0 0 1.23885,-2.994476 v -31.57361 -31.57361 -15.7868 a 4.2337566,4.2337566 0 0 0 -1.23885,-2.9931 L 118.08786,1.2418636 A 4.2337566,4.2337566 0 0 0 115.09339,0.00162361 H 99.306917 67.733307 Z M 37.913936,8.4666736 h 29.819368 31.573611 14.033945 l 13.65911,13.6604804 v 14.03257 31.57361 29.82074 l -17.8952,17.896576 -50.514749,-50.071006 7.470345,-7.47034 37.423384,37.42338 a 4.2337566,4.2337566 0 0 0 5.9862,0 l 3.59116,-3.58979 a 4.2337566,4.2337566 0 0 0 1.23886,-2.99311 v -21.01645 -21.01508 -10.50755 a 4.2337566,4.2337566 0 0 0 -1.23886,-2.9931 l -10.81071,-10.8107 a 4.2337566,4.2337566 0 0 0 -2.993095,-1.24023 H 88.749764 67.733304 46.718222 a 4.2337566,4.2337566 0 0 0 -2.993099,1.24023 l -21.31825,21.31825 a 4.2337566,4.2337566 0 0 0 -1.240234,2.9931 v 21.01508 21.01645 10.50755 a 4.2337566,4.2337566 0 0 0 1.240234,2.993096 l 10.810709,10.81071 a 4.2337566,4.2337566 0 0 0 2.993099,1.23885 H 46.718222 67.733304 78.04792 l 12.699999,12.7 H 67.733304 36.159694 22.127131 L 8.4666391,113.34088 V 99.306944 67.733334 37.913964 Z"
       id="path1807" />
  </g>
</svg>
