<svg xmlns="http://www.w3.org/2000/svg" width="512" height="512" viewBox="0 0 135.467 135.467"><path style="color:#000;font-style:normal;font-variant:normal;font-weight:400;font-stretch:normal;font-size:medium;line-height:normal;font-family:sans-serif;font-variant-ligatures:normal;font-variant-position:normal;font-variant-caps:normal;font-variant-numeric:normal;font-variant-alternates:normal;font-variant-east-asian:normal;font-feature-settings:normal;font-variation-settings:normal;text-indent:0;text-align:start;text-decoration:none;text-decoration-line:none;text-decoration-style:solid;text-decoration-color:#000;letter-spacing:normal;word-spacing:normal;text-transform:none;writing-mode:lr-tb;direction:ltr;text-orientation:mixed;dominant-baseline:auto;baseline-shift:baseline;text-anchor:start;white-space:normal;shape-padding:0;shape-margin:0;inline-size:0;clip-rule:nonzero;display:inline;overflow:visible;visibility:visible;isolation:auto;mix-blend-mode:normal;color-interpolation:sRGB;color-interpolation-filters:linearRGB;solid-color:#000;solid-opacity:1;vector-effect:none;fill:#09907e;fill-opacity:1;fill-rule:nonzero;stroke:none;stroke-width:.999998;stroke-linecap:round;stroke-linejoin:round;stroke-miterlimit:4;stroke-dasharray:none;stroke-dashoffset:0;stroke-opacity:1;color-rendering:auto;image-rendering:auto;shape-rendering:auto;text-rendering:auto;enable-background:accumulate;stop-color:#000" d="M36.16 0a4.234 4.234 0 0 0-2.993 1.24L1.24 33.167A4.234 4.234 0 0 0 0 36.16V115.094a4.234 4.234 0 0 0 1.24 2.994l16.14 16.14a4.234 4.234 0 0 0 2.993 1.239h78.934a4.234 4.234 0 0 0 2.994-1.24l.83-.83a4.234 4.234 0 0 0 0-5.986l-20.336-20.337a4.233 4.233 0 0 0-.007-.005 4.233 4.233 0 0 0-.005-.007 4.233 4.233 0 0 0-.092-.089 4.233 4.233 0 0 0-.013-.012 4.233 4.233 0 0 0-.095-.085 4.233 4.233 0 0 0-.014-.011 4.233 4.233 0 0 0-.098-.083 4.233 4.233 0 0 0-.013-.011 4.233 4.233 0 0 0-.1-.079 4.233 4.233 0 0 0-.015-.01 4.233 4.233 0 0 0-.103-.076 4.233 4.233 0 0 0-.014-.01 4.233 4.233 0 0 0-.106-.071 4.233 4.233 0 0 0-.015-.01 4.233 4.233 0 0 0-.108-.068 4.233 4.233 0 0 0-.015-.01 4.233 4.233 0 0 0-.111-.063 4.233 4.233 0 0 0-.101-.054 4.233 4.233 0 0 0-.026-.015 4.233 4.233 0 0 0-.017-.008 4.233 4.233 0 0 0-.114-.057 4.233 4.233 0 0 0-.017-.008 4.233 4.233 0 0 0-.115-.052 4.233 4.233 0 0 0-.017-.007 4.233 4.233 0 0 0-.007-.003 4.233 4.233 0 0 0-.127-.05 4.233 4.233 0 0 0-.12-.046 4.233 4.233 0 0 0-.016-.005 4.233 4.233 0 0 0-.121-.04 4.233 4.233 0 0 0-.018-.006 4.233 4.233 0 0 0-.02-.005 4.233 4.233 0 0 0-.12-.035 4.233 4.233 0 0 0-.123-.032 4.233 4.233 0 0 0-.017-.004 4.233 4.233 0 0 0-.125-.027 4.233 4.233 0 0 0-.097-.02 4.233 4.233 0 0 0-.045-.007 4.233 4.233 0 0 0-.018-.003 4.233 4.233 0 0 0-.126-.018 4.233 4.233 0 0 0-.018-.003 4.233 4.233 0 0 0-.126-.016 4.233 4.233 0 0 0-.018 0 4.233 4.233 0 0 0-.127-.01 4.233 4.233 0 0 0-.018-.002 4.233 4.233 0 0 0-.128-.005 4.233 4.233 0 0 0-.127-.003H37.964l-8.33-8.33v-49.03l18.838-18.84h49.031l8.33 8.33V85.71l-36.78-36.781a4.234 4.234 0 0 0-5.987 0l-13.47 13.47a4.234 4.234 0 0 0 .013 6l56.529 56.031a4.233 4.233 0 0 0 .06.057 4.233 4.233 0 0 0 .042.041 4.233 4.233 0 0 0 .003.003 4.233 4.233 0 0 0 .095.084 4.233 4.233 0 0 0 .08.068 4.233 4.233 0 0 0 .036.03 4.233 4.233 0 0 0 .053.043 4.233 4.233 0 0 0 .055.042 4.233 4.233 0 0 0 .016.011 4.233 4.233 0 0 0 .102.075 4.233 4.233 0 0 0 .016.01 4.233 4.233 0 0 0 .117.08 4.233 4.233 0 0 0 .018.012 4.233 4.233 0 0 0 .218.13 4.233 4.233 0 0 0 .087.047 4.233 4.233 0 0 0 .041.022 4.233 4.233 0 0 0 .016.008 4.233 4.233 0 0 0 .24.113 4.233 4.233 0 0 0 .005.003 4.233 4.233 0 0 0 .112.046 4.233 4.233 0 0 0 .033.014 4.233 4.233 0 0 0 .008.003 4.233 4.233 0 0 0 .118.044 4.233 4.233 0 0 0 .277.087 4.233 4.233 0 0 0 .097.026 4.233 4.233 0 0 0 .044.01 4.233 4.233 0 0 0 .032.008 4.233 4.233 0 0 0 .128.027 4.233 4.233 0 0 0 .125.024 4.233 4.233 0 0 0 .018.003 4.233 4.233 0 0 0 .126.02 4.233 4.233 0 0 0 .092.01 4.233 4.233 0 0 0 .052.005 4.233 4.233 0 0 0 .018.001 4.233 4.233 0 0 0 .127.011 4.233 4.233 0 0 0 .072.003 4.233 4.233 0 0 0 .092.004 4.233 4.233 0 0 0 .145.001 4.233 4.233 0 0 0 .037 0 4.233 4.233 0 0 0 .109-.004 4.233 4.233 0 0 0 .125-.007 4.233 4.233 0 0 0 .02 0 4.233 4.233 0 0 0 .125-.013 4.233 4.233 0 0 0 .113-.014 4.233 4.233 0 0 0 .032-.004 4.233 4.233 0 0 0 .017-.003 4.233 4.233 0 0 0 .145-.023 4.233 4.233 0 0 0 .03-.005 4.233 4.233 0 0 0 .094-.02 4.233 4.233 0 0 0 .092-.02 4.233 4.233 0 0 0 .049-.011 4.233 4.233 0 0 0 .019-.005 4.233 4.233 0 0 0 .03-.008 4.233 4.233 0 0 0 .091-.025 4.233 4.233 0 0 0 .077-.024 4.233 4.233 0 0 0 .08-.024 4.233 4.233 0 0 0 .062-.021 4.233 4.233 0 0 0 .058-.02 4.233 4.233 0 0 0 .135-.052 4.233 4.233 0 0 0 .018-.007 4.233 4.233 0 0 0 .042-.018 4.233 4.233 0 0 0 .092-.04 4.233 4.233 0 0 0 .114-.052 4.233 4.233 0 0 0 .017-.008 4.233 4.233 0 0 0 .113-.058 4.233 4.233 0 0 0 .016-.008 4.233 4.233 0 0 0 .112-.062 4.233 4.233 0 0 0 .124-.074 4.233 4.233 0 0 0 .016-.01 4.233 4.233 0 0 0 .106-.07 4.233 4.233 0 0 0 .097-.065 4.233 4.233 0 0 0 .023-.016 4.233 4.233 0 0 0 .016-.01 4.233 4.233 0 0 0 .01-.009 4.233 4.233 0 0 0 .219-.17 4.233 4.233 0 0 0 .096-.083 4.233 4.233 0 0 0 .014-.013 4.233 4.233 0 0 0 .094-.085 4.233 4.233 0 0 0 .013-.012 4.233 4.233 0 0 0 .065-.065l.014-.013a4.233 4.233 0 0 0 .025-.026l22.077-22.076a4.234 4.234 0 0 0 1.24-2.994V20.375a4.234 4.234 0 0 0-1.24-2.994l-16.14-16.14a4.234 4.234 0 0 0-2.994-1.24h-47.36zm1.754 8.467h75.427L127 22.127v75.427l-17.895 17.897L58.59 65.38l7.47-7.47 37.424 37.423a4.234 4.234 0 0 0 5.986 0l3.591-3.59a4.234 4.234 0 0 0 1.239-2.993V36.21a4.234 4.234 0 0 0-1.239-2.993l-10.81-10.811a4.234 4.234 0 0 0-2.994-1.24H46.718a4.234 4.234 0 0 0-2.993 1.24L22.407 43.725a4.234 4.234 0 0 0-1.24 2.993V99.257a4.234 4.234 0 0 0 1.24 2.993l10.81 10.811a4.234 4.234 0 0 0 2.994 1.239H78.048l12.7 12.7H22.127l-13.66-13.66V37.915z"/></svg>