<svg width="520" height="519.995" viewBox="0 0 137.583 137.582" xmlns="http://www.w3.org/2000/svg">
   <path
      fill="#09907e"
      fill-opacity="1"
      fill-rule="evenodd"
      stroke="none"
      stroke-width="1"
      stroke-linecap="round"
      stroke-linejoin="round"
      stroke-miterlimit="4"
      stroke-opacity="1"
      d="M39.67 10.914h73.66l13.339 13.342v73.657l-17.475 17.476-49.331-48.895 7.295-7.296 36.546 36.546a4.136 4.136 0 0 0 5.846 0l3.507-3.505a4.134 4.134 0 0 0 1.21-2.924V38.008a4.135 4.135 0 0 0-1.21-2.922L102.5 24.528a4.135 4.135 0 0 0-2.924-1.211H48.27a4.135 4.135 0 0 0-2.922 1.212L24.528 45.345a4.134 4.134 0 0 0-1.212 2.923v51.307c0 1.097.436 2.149 1.212 2.924l10.558 10.557a4.135 4.135 0 0 0 2.922 1.21h35.564l12.403 12.402h-61.72l-13.34-13.338V39.67zm-1.712-8.268a4.134 4.134 0 0 0-2.922 1.211L3.857 35.034a4.135 4.135 0 0 0-1.211 2.923v77.084c0 1.098.436 2.15 1.212 2.925l15.76 15.76a4.134 4.134 0 0 0 2.924 1.21h71.792c4.425-.122 6.159-5.25 3.734-7.867l-19.86-19.86-.006-.005-.004-.008c-.68-.68-1.453-1.202-2.912-1.202H39.72l-8.135-8.135V49.982l18.399-18.397h47.879l8.135 8.134v46.628l-35.916-35.92a4.135 4.135 0 0 0-5.848 0L51.08 63.582a4.135 4.135 0 0 0 .013 5.858l55.204 54.719c2.139 2.044 4.35 1.22 5.872-.044l21.56-21.564a4.135 4.135 0 0 0 1.21-2.925V22.542a4.134 4.134 0 0 0-1.21-2.923L117.965 3.857a4.134 4.134 0 0 0-2.923-1.21h-46.25z"/>
</svg>
